<?xml version="1.0" encoding="UTF-8" standalone="no"?>
<svg
   viewBox="0 -0.5 512 512"
   shape-rendering="crispEdges"
   version="1.1"
   id="svg602"
   sodipodi:docname="New Piskel.svg"
   inkscape:version="1.2.2 (b0a8486541, 2022-12-01)"
   xmlns:inkscape="http://www.inkscape.org/namespaces/inkscape"
   xmlns:sodipodi="http://sodipodi.sourceforge.net/DTD/sodipodi-0.dtd"
   xmlns="http://www.w3.org/2000/svg"
   xmlns:svg="http://www.w3.org/2000/svg">
  <defs
     id="defs606" />
  <sodipodi:namedview
     id="namedview604"
     pagecolor="#ffffff"
     bordercolor="#666666"
     borderopacity="1.0"
     inkscape:showpageshadow="2"
     inkscape:pageopacity="0.0"
     inkscape:pagecheckerboard="0"
     inkscape:deskcolor="#d1d1d1"
     showgrid="false"
     inkscape:zoom="0.96708327"
     inkscape:cx="98.750545"
     inkscape:cy="323.65362"
     inkscape:window-width="1916"
     inkscape:window-height="1059"
     inkscape:window-x="0"
     inkscape:window-y="17"
     inkscape:window-maximized="1"
     inkscape:current-layer="svg602" />
  <metadata
     id="metadata500">Made with Pixels to Svg https://codepen.io/shshaw/pen/XbxvNj</metadata>
  <path
     stroke="#31ff00"
     d="m 252.4154,43.889044 h 16 m -48,32 h 16 m 64,0 h 16 m -128,16.000004 h 16 m 128,0 h 16 m -80,32.000002 h 16 m 64,0 h 16 m -176,32 h 32 m -32,32 h 16 m 112,0 h 16 m -112,16 h 16 m -96,32 h 16 m 176,0 h 16 m -208,32 h 16 m -32,16 h 16 m 208,16 h 16"
     id="path502"
     style="stroke-width:16" />
  <path
     stroke="#91ff4b"
     d="m 236.4154,59.889044 h 16 m -80,192.000006 h 16"
     id="path504"
     style="stroke-width:16" />
  <path
     stroke="#7fff2d"
     d="m 252.4154,59.889044 h 16 m -32,16 h 16 m 16,0 h 16 m 64,96.000006 h 16 m -16,16 h 16"
     id="path506"
     style="stroke-width:16" />
  <path
     stroke="#76fe1e"
     d="m 268.4154,59.889044 h 16"
     id="path508"
     style="stroke-width:16" />
  <path
     stroke="#623c44"
     d="m 252.4154,75.889044 h 16 m -16,16.000004 h 16 m 16,16.000002 h 16 m 16,0 h 16 m -160,48 h 16 m -16,16 h 48 m 64,0 h 48 m -128,16 h 32 m 48,0 h 16 m -144,16 h 16 m -16,16 h 16 m 48,0 h 16 m 128,32 h 16 m -96,16 h 48 m 16,0 h 48 m -240,16 h 16 m 16,0 h 16 m 112,0 h 16 m -192,16 h 16 m 16,0 h 64"
     id="path510"
     style="stroke-width:16" />
  <path
     stroke="#76ff1f"
     d="m 284.4154,75.889044 h 16 m 32,80.000006 h 16"
     id="path512"
     style="stroke-width:16" />
  <path
     stroke="#64ff00"
     d="m 204.4154,91.889048 h 32 m 32,0 h 16 m -96,16.000002 h 16 m 80,48 h 48 m -176,32 h 16 m 96,0 h 16 m -144,16 h 16 m 16,0 h 48 m -16,32 h 16 m 128,0 h 16 m 16,0 h 16 m -96,16 h 64 m 32,0 h 16 m -208,32 h 16 m 80,0 h 16 m 32,0 h 16 m -64,16 h 16 m 16,0 h 16 m -224,16 h 80"
     id="path514"
     style="stroke-width:16" />
  <path
     stroke="#88ff3c"
     d="m 236.4154,91.889048 h 16 m 80,96.000002 h 16"
     id="path516"
     style="stroke-width:16" />
  <path
     stroke="#6b424b"
     d="m 284.4154,91.889048 h 16"
     id="path518"
     style="stroke-width:16" />
  <path
     stroke="#7eff2d"
     d="m 300.4154,91.889048 h 16"
     id="path520"
     style="stroke-width:16" />
  <path
     stroke="#64ff01"
     d="m 316.4154,91.889048 h 16 m -192,128.000002 h 16"
     id="path522"
     style="stroke-width:16" />
  <path
     stroke="#623c45"
     d="m 204.4154,107.88905 h 16 m 80,0 h 16 m 16,64 h 16"
     id="path524"
     style="stroke-width:16" />
  <path
     stroke="#633c44"
     d="m 220.4154,107.88905 h 16 m -48,112 h 16 m -32,16 h 16 m 144,32 h 16 m -192,32 h 16"
     id="path526"
     style="stroke-width:16" />
  <path
     stroke="#4f3036"
     d="m 236.4154,107.88905 h 16 m 0,64 h 16 m -16,112 h 16 m -16,16 h 16 m -32,32 h 16"
     id="path528"
     style="stroke-width:16" />
  <path
     stroke="#4f3037"
     d="m 252.4154,107.88905 h 32 m -48,16 h 32 m -16,16 h 16 m -16,16 h 16 m -32,32 h 16 m -16,16 h 32 m -32,16 h 32 m -32,16 h 32 m -16,16 h 16 m -32,16 h 16 m -16,16 h 16 m 32,0 h 16 m -64,16 h 16 m 16,0 h 16 m -64,16 h 64"
     id="path530"
     style="stroke-width:16" />
  <path
     stroke="#6dff0f"
     d="m 332.4154,107.88905 h 16 m 0,48 h 16"
     id="path532"
     style="stroke-width:16" />
  <path
     stroke="#6dff4b"
     d="m 188.4154,123.88905 h 16 m 16,48 h 16 m 128,16 h 16 m -224,64 h 16"
     id="path534"
     style="stroke-width:16" />
  <path
     stroke="#5ef000"
     d="m 204.4154,123.88905 h 32 m 64,0 h 16 m 64,128 h 16 m -256,32 h 16 m 16,0 h 16 m -64,16 h 16"
     id="path536"
     style="stroke-width:16" />
  <path
     stroke="#2ff000"
     d="m 284.4154,123.88905 h 16"
     id="path538"
     style="stroke-width:16" />
  <path
     stroke="#5ef100"
     d="m 316.4154,123.88905 h 16 m 32,160 h 16 m -64,16 h 16"
     id="path540"
     style="stroke-width:16" />
  <path
     stroke="#2ef000"
     d="m 332.4154,123.88905 h 16 m -48,16 h 16"
     id="path542"
     style="stroke-width:16" />
  <path
     stroke="#49ff1e"
     d="m 156.4154,139.88905 h 16 m 112,0 h 16 m -80,16 h 16 m 128,0 h 16 m -16,16 h 16 m -80,32 h 16 m -128,48 h 16"
     id="path544"
     style="stroke-width:16" />
  <path
     stroke="#55ff2d"
     d="m 172.4154,139.88905 h 16 m 16,0 h 16 m 16,0 h 16 m 64,0 h 16 m -192,112 h 16"
     id="path546"
     style="stroke-width:16" />
  <path
     stroke="#77ff5a"
     d="m 188.4154,139.88905 h 16"
     id="path548"
     style="stroke-width:16" />
  <path
     stroke="#79ff5a"
     d="m 220.4154,139.88905 h 16 m 128,0 h 16 m -240,48 h 16 m 160,16 h 16 m 32,0 h 16 m -48,16 h 32"
     id="path550"
     style="stroke-width:16" />
  <path
     stroke="#3dff0f"
     d="m 332.4154,139.88905 h 16 m 0,64 h 16"
     id="path552"
     style="stroke-width:16" />
  <path
     stroke="#85ff69"
     d="m 348.4154,139.88905 h 16"
     id="path554"
     style="stroke-width:16" />
  <path
     stroke="#61fe3c"
     d="m 156.4154,155.88905 h 16"
     id="path556"
     style="stroke-width:16" />
  <path
     stroke="#91ff78"
     d="m 156.4154,171.88905 h 16"
     id="path558"
     style="stroke-width:16" />
  <path
     stroke="#623d44"
     d="m 268.4154,171.88905 h 16 m -112,48 h 16 m 16,0 h 16"
     id="path560"
     style="stroke-width:16" />
  <path
     stroke="#89ff3c"
     d="m 172.4154,187.88905 h 16"
     id="path562"
     style="stroke-width:16" />
  <path
     stroke="#4e3037"
     d="m 252.4154,187.88905 h 16 m 0,64 h 16 m -32,80 h 16"
     id="path564"
     style="stroke-width:16" />
  <path
     stroke="#76ff1d"
     d="m 300.4154,187.88905 h 16"
     id="path566"
     style="stroke-width:16" />
  <path
     stroke="#77ff1e"
     d="m 284.4154,203.88905 h 16"
     id="path568"
     style="stroke-width:16" />
  <path
     stroke="#61ff3c"
     d="m 332.4154,203.88905 h 16"
     id="path570"
     style="stroke-width:16" />
  <path
     stroke="#64fe00"
     d="m 156.4154,235.88905 h 16 m 192,0 h 16"
     id="path572"
     style="stroke-width:16" />
  <path
     stroke="#65fe00"
     d="m 188.4154,235.88905 h 16"
     id="path574"
     style="stroke-width:16" />
  <path
     stroke="#4f3137"
     d="m 236.4154,251.88905 h 16 m 0,16 h 16 m 0,16 h 16 m -16,48 h 16"
     id="path576"
     style="stroke-width:16" />
  <path
     stroke="#5ff000"
     d="m 156.4154,267.88905 h 16 m 16,0 h 16"
     id="path578"
     style="stroke-width:16" />
  <path
     stroke="#65ff01"
     d="m 172.4154,267.88905 h 16"
     id="path580"
     style="stroke-width:16" />
  <path
     stroke="#4e3137"
     d="m 268.4154,267.88905 h 16"
     id="path582"
     style="stroke-width:16" />
  <path
     stroke="#58e000"
     d="m 396.4154,267.88905 h 16"
     id="path584"
     style="stroke-width:16" />
  <path
     stroke="#5ff100"
     d="m 332.4154,283.88905 h 16"
     id="path586"
     style="stroke-width:16" />
  <path
     stroke="#52d200"
     d="m 380.4154,283.88905 h 16"
     id="path588"
     style="stroke-width:16" />
  <path
     stroke="#59e100"
     d="m 396.4154,283.88905 h 16"
     id="path590"
     style="stroke-width:16" />
  <path
     stroke="#6d5631"
     d="m 172.4154,347.88905 h 96 m 16,0 h 16 m -144,16 h 16 m 16,0 h 48 m 32,0 h 16 m 16,0 h 16 m 16,0 h 16"
     id="path592"
     style="stroke-width:16" />
  <path
     stroke="#6d5731"
     d="m 268.4154,347.88905 h 16 m -48,16 h 32 m 16,0 h 16"
     id="path594"
     style="stroke-width:16" />
  <path
     stroke="#6d5630"
     d="m 300.4154,347.88905 h 16"
     id="path596"
     style="stroke-width:16" />
  <path
     stroke="#6c5631"
     d="m 316.4154,347.88905 h 16 m -160,16 h 16 m 128,0 h 16"
     id="path598"
     style="stroke-width:16" />
  <path
     stroke="#191612"
     d="m 108.4154,379.88905 h 288 m -288,16 h 288 m -288,16 h 288 m -256,16 h 224 m -224,16 h 224 m -224,16 h 224"
     id="path600"
     style="stroke-width:16" />
</svg>
